# xmcd
#
# Track frame offsets:
#  150
#  21377
#  46287
#  61880
#  80027
#  101805
#  118805
#  137730
#  155652
#  178205
#  205642
#  232755
#
# Disc length: 3339 seconds
#
# Revision: 0
# Processed by: cddbd v1.5.1PL2 Copyright (c) Steve Scherf et al.
# Submitted via: Collectorz.com_Music_Collector 6.11
#
DISCID=a50d090c
DTITLE=Charles Brown - So Goes Love
DYEAR=1998
DGENRE=Blues
TTITLE0=Leon Rene - New Orleans Blues
TTITLE1=Ray Williams - My Heart Is Mended
TTITLE2=Jerry Livingstone - Mack David - (Oh! Oh!) What Do You Know About Love ?
TTITLE3=Dootsie Williams - Jessie Robinson - Money's Gettin' Cheaper
TTITLE4=Lionel Hampton - She's Gone Again
TTITLE5=Buddy Fields - Gerald Marks - I'll Get Along Somehow
TTITLE6=Benny Ray Licht - So Goes Love
TTITLE7=Billy Eckstine - Earl Hines - Stormy Monday
TTITLE8=Traditional - Sometimes I Feel Like A Motherless Child
TTITLE9=Leroy Kirkland - Sidney J. Wyche - Ain't No Use
TTITLE10=Mack Gordon - Harry Warren - You'll Never Know
TTITLE11=Charlie Carpenter - Louis Dunlat - G. Wilson - Blue Because Of You
EXTD=
EXTT0=
EXTT1=
EXTT2=
EXTT3=
EXTT4=
EXTT5=
EXTT6=
EXTT7=
EXTT8=
EXTT9=
EXTT10=
EXTT11=
PLAYORDER=
